<svg width="21" height="21" viewBox="0 0 21 21" fill="none" xmlns="http://www.w3.org/2000/svg">
<path fill-rule="evenodd" clip-rule="evenodd" d="M4.76729 6.51929H0.266174V20.0433H4.76729V6.51929Z" fill="white"/>
<path fill-rule="evenodd" clip-rule="evenodd" d="M5.06373 2.33599C5.03451 1.00997 4.08627 0 2.54647 0C1.00667 0 0 1.00997 0 2.33599C0 3.63454 0.976916 4.6736 2.48804 4.6736H2.51681C4.08627 4.6736 5.06373 3.63454 5.06373 2.33599Z" fill="white"/>
<path fill-rule="evenodd" clip-rule="evenodd" d="M21 12.289C21 8.13499 18.7795 6.20166 15.8176 6.20166C13.4278 6.20166 12.3578 7.5143 11.7604 8.43515V6.51959H7.25876C7.31809 7.78861 7.25876 20.0436 7.25876 20.0436H11.7604V12.4907C11.7604 12.0865 11.7896 11.6833 11.9086 11.3939C12.2339 10.5864 12.9746 9.75039 14.2182 9.75039C15.8476 9.75039 16.4989 10.9905 16.4989 12.8079V20.0432H20.9999L21 12.289Z" fill="white"/>
</svg>
