<svg width="25" height="22" viewBox="0 0 25 22" fill="none" xmlns="http://www.w3.org/2000/svg">
<path d="M24.0919 2.97104C23.9719 3.01104 23.8419 3.04065 23.7219 3.07065C22.9719 3.26065 22.9019 3.01078 23.4419 2.46078C23.6819 2.22078 23.9019 1.95098 24.0819 1.66098C24.5019 1.01098 24.1419 0.730608 23.4219 1.03061C23.1719 1.14061 22.9119 1.24065 22.6519 1.32065C21.8019 1.47065 20.9319 1.28061 20.2319 0.780608C18.1319 -0.499392 15.4219 -0.179373 13.6719 1.55063C12.6619 2.53063 12.0919 3.89063 12.1219 5.30063C12.1219 5.50063 12.1319 5.71098 12.1519 5.91098C12.1919 6.25098 11.6219 6.49071 10.8619 6.38071C9.22187 6.15071 7.62187 5.64071 6.15187 4.88071C4.70187 4.14071 3.38187 3.17082 2.24187 2.00082C1.70187 1.45082 0.971867 1.50057 0.771867 2.24057C0.651867 2.69057 0.591866 3.16071 0.591866 3.63071C0.581866 4.51071 0.801866 5.39098 1.23187 6.16098C1.44187 6.54098 1.69187 6.89078 1.98187 7.21078C2.46187 7.74078 2.39187 8.04069 1.72187 7.86069C1.32187 7.74069 0.941868 7.59098 0.561868 7.41098V7.44076C0.541868 8.67076 0.971867 9.87065 1.77187 10.8206C2.24187 11.4006 2.83187 11.871 3.50187 12.201C4.19187 12.541 4.51187 12.7306 4.13187 12.7806C3.90187 12.8106 3.66187 12.8206 3.43187 12.8206C3.27187 12.8206 3.10187 12.8106 2.93187 12.8006C2.65187 12.7806 2.60187 13.3508 3.02187 14.0008C3.36187 14.5308 3.80187 14.9907 4.30187 15.3607C4.81187 15.7507 5.39186 16.041 6.01186 16.221C6.75186 16.431 6.90187 16.8208 6.24187 17.2108C4.60187 18.2008 2.71187 18.7108 0.801866 18.6908C0.581866 18.6908 0.361866 18.6907 0.161866 18.6707C-0.188134 18.6507 0.0418658 18.9706 0.731866 19.3206C2.87187 20.4406 5.26187 21.0208 7.67187 21.0008C9.48187 21.0108 11.2719 20.7109 12.9819 20.1009C14.5319 19.5609 15.9619 18.751 17.2219 17.701C18.3919 16.701 19.4119 15.5306 20.2519 14.2406C21.0819 12.9806 21.7219 11.601 22.1519 10.161C22.5619 8.78098 22.7719 7.34072 22.7719 5.90072C22.7719 5.77072 22.7719 5.66088 22.7719 5.56088C22.7719 5.37088 23.2719 4.85065 23.8319 4.32065C24.0819 4.08065 24.3319 3.83065 24.5619 3.57065C25.0619 3.02065 24.8319 2.76104 24.0919 2.97104Z" fill="white"/>
</svg>
